Coordinates
version=1
nRows=24
nColumns=24
inDegrees=yes

Units are S.I. units (second, meters, Newtons, ...)
Angles are in degrees.

endheader
time	pelvis_tilt	pelvis_list	pelvis_rotation	pelvis_tx	pelvis_ty	pelvis_tz	hip_flexion_r	hip_adduction_r	hip_rotation_r	knee_angle_r	ankle_angle_r	subtalar_angle_r	mtp_angle_r	hip_flexion_l	hip_adduction_l	hip_rotation_l	knee_angle_l	ankle_angle_l	subtalar_angle_l	mtp_angle_l	lumbar_extension	lumbar_bending	lumbar_rotation
     14.69166667	     -3.42999767	    -51.38558511	    -86.32187862	      0.22952294	      1.02909037	      0.36356212	     19.78873466	     -6.22723654	    -16.08449644	    -80.54981144	      0.86165879	     -1.71099044	      0.00000000	     37.42471694	     -2.38469467	     -8.52628051	    -20.97080391	    -17.97915952	     18.13097716	      0.00000000	    -54.61955772	      7.41135492	     -8.99062575
     14.70000000	     -3.42882571	    -51.38427139	    -86.31713422	      0.22951868	      1.02909548	      0.36356277	     19.78725524	     -6.22137797	    -16.08800808	    -80.54447899	      0.86369635	     -1.71108842	      0.00000000	     37.42510396	     -2.38366464	     -8.52709411	    -20.96686465	    -17.97861681	     18.13195982	      0.00000000	    -54.61840618	      7.41277386	     -8.99325223
     14.70833333	     -3.42768651	    -51.38463662	    -86.31817219	      0.22953074	      1.02909169	      0.36356236	     19.78649319	     -6.22064117	    -16.08928434	    -80.54470447	      0.86390360	     -1.71097258	      0.00000000	     37.42523081	     -2.38331495	     -8.52716773	    -20.96680263	    -17.97870220	     18.13207861	      0.00000000	    -54.61760865	      7.41271167	     -8.99324979
     14.71666667	     -3.42969270	    -51.38516181	    -86.31835658	      0.22953000	      1.02909614	      0.36356791	     19.78197970	     -6.21939604	    -16.09425527	    -80.54701060	      0.86608746	     -1.71058043	      0.00000000	     37.42402019	     -2.38147187	     -8.52798482	    -20.96567557	    -17.97864854	     18.13233926	      0.00000000	    -54.61238880	      7.41011699	     -8.99065256
     14.72500000	     -3.42955206	    -51.38418587	    -86.31910176	      0.22952144	      1.02909422	      0.36356423	     19.78130509	     -6.21898614	    -16.09518101	    -80.54727660	      0.86630838	     -1.71054445	      0.00000000	     37.42427682	     -2.38008250	     -8.52837988	    -20.96559526	    -17.97859471	     18.13237242	      0.00000000	    -54.61286745	      7.41001946	     -8.99050164
     14.73333333	     -3.43099790	    -51.38570642	    -86.31864075	      0.22950595	      1.02908993	      0.36356106	     19.78069945	     -6.22008939	    -16.10497629	    -80.54971357	      0.86949301	     -1.70904894	      0.00000000	     37.42425164	     -2.38220965	     -8.53144340	    -20.96425558	    -17.97739837	     18.13140840	      0.00000000	    -54.61481278	      7.40961221	     -8.99077166
     14.74166667	     -3.43101960	    -51.38588103	    -86.31783241	      0.22950583	      1.02909498	      0.36355991	     19.77906301	     -6.21951919	    -16.10437787	    -80.55141813	      0.87016495	     -1.70877348	      0.00000000	     37.42438073	     -2.38269823	     -8.53179410	    -20.96342951	    -17.97707814	     18.13130162	      0.00000000	    -54.61399782	      7.41119618	     -8.99054935
     14.75000000	     -3.43216043	    -51.38661880	    -86.31590921	      0.22949509	      1.02910270	      0.36356710	     19.77667302	     -6.21871899	    -16.10947682	    -80.55601691	      0.87214551	     -1.70833559	      0.00000000	     37.42277119	     -2.38310116	     -8.53405351	    -20.96346301	    -17.97541741	     18.13026605	      0.00000000	    -54.61195582	      7.41111767	     -8.98933367
     14.75833333	     -3.43232280	    -51.38628274	    -86.31714190	      0.22948930	      1.02909578	      0.36356574	     19.77573610	     -6.21838793	    -16.11061048	    -80.55653877	      0.87233969	     -1.70824509	      0.00000000	     37.42226059	     -2.38135506	     -8.53471290	    -20.96391794	    -17.97514405	     18.13005913	      0.00000000	    -54.61129513	      7.41076051	     -8.98949354
     14.76666667	     -3.43270672	    -51.38685938	    -86.31513788	      0.22948730	      1.02908960	      0.36358051	     19.77067183	     -6.21584019	    -16.11178865	    -80.55827319	      0.87227697	     -1.70737704	      0.00000000	     37.42108490	     -2.38159626	     -8.53668657	    -20.96519485	    -17.97391730	     18.12837842	      0.00000000	    -54.60692549	      7.41037774	     -8.99068367
     14.77500000	     -3.43289552	    -51.38625328	    -86.31506480	      0.22949252	      1.02909191	      0.36357913	     19.76996736	     -6.21539941	    -16.11237932	    -80.55823664	      0.87229814	     -1.70704550	      0.00000000	     37.42111682	     -2.38121974	     -8.53710333	    -20.96592678	    -17.97368312	     18.12797649	      0.00000000	    -54.60744557	      7.40987548	     -8.99089733
     14.78333333	     -3.43371252	    -51.38531203	    -86.31568734	      0.22949096	      1.02909381	      0.36357499	     19.77011997	     -6.21546159	    -16.11277896	    -80.55824297	      0.87253039	     -1.70691938	      0.00000000	     37.41977752	     -2.37986813	     -8.53720129	    -20.96720669	    -17.97369488	     18.12790675	      0.00000000	    -54.60765246	      7.40930088	     -8.99138743
     14.79166667	     -3.43281973	    -51.38811534	    -86.31866392	      0.22948048	      1.02908897	      0.36357609	     19.76734226	     -6.21903963	    -16.11433750	    -80.56191725	      0.87714873	     -1.70873063	      0.00000000	     37.41667189	     -2.38101553	     -8.53137928	    -20.97565387	    -17.97442532	     18.12706519	      0.00000000	    -54.61065298	      7.40673396	     -8.99993551
     14.80000000	     -3.43380554	    -51.38911587	    -86.32095004	      0.22947201	      1.02909968	      0.36358501	     19.76551522	     -6.22196196	    -16.11728032	    -80.56458586	      0.87884921	     -1.70910060	      0.00000000	     37.41266614	     -2.38240710	     -8.53031633	    -20.97751352	    -17.97432234	     18.12630929	      0.00000000	    -54.60887836	      7.40614973	     -8.99803546
     14.80833333	     -3.43413562	    -51.38958401	    -86.32102531	      0.22946734	      1.02910360	      0.36358032	     19.76548500	     -6.22235348	    -16.11805027	    -80.56534318	      0.87897539	     -1.70899276	      0.00000000	     37.41140547	     -2.38259235	     -8.52995339	    -20.97860987	    -17.97455707	     18.12623391	      0.00000000	    -54.60844446	      7.40568779	     -8.99787025
     14.81666667	     -3.43416971	    -51.38984470	    -86.32140857	      0.22946677	      1.02910671	      0.36357384	     19.76364356	     -6.22154824	    -16.11788088	    -80.56682069	      0.87881779	     -1.70900698	      0.00000000	     37.41165396	     -2.38122755	     -8.52963462	    -20.97939918	    -17.97504940	     18.12623234	      0.00000000	    -54.60763977	      7.40513120	     -8.99818013
     14.82500000	     -3.43277161	    -51.39385092	    -86.31818845	      0.22945193	      1.02910018	      0.36356246	     19.76217389	     -6.21894616	    -16.11535225	    -80.57627594	      0.87997299	     -1.70940036	      0.00000000	     37.41091157	     -2.37897391	     -8.52436547	    -20.98724325	    -17.97907573	     18.12730446	      0.00000000	    -54.61165050	      7.40410866	     -8.99878893
     14.83333333	     -3.43142018	    -51.39307980	    -86.31883770	      0.22945845	      1.02910165	      0.36356288	     19.76223415	     -6.22071241	    -16.11504622	    -80.57544899	      0.88033975	     -1.70963315	      0.00000000	     37.40992069	     -2.38066847	     -8.52356716	    -20.98820050	    -17.97925774	     18.12744667	      0.00000000	    -54.61177147	      7.40520427	     -8.99914433
     14.84166667	     -3.43116344	    -51.39231384	    -86.32015001	      0.22947582	      1.02910607	      0.36357717	     19.75988078	     -6.22298806	    -16.11481147	    -80.57343372	      0.88052576	     -1.70951355	      0.00000000	     37.40783715	     -2.38142528	     -8.52288151	    -20.98903695	    -17.97904488	     18.12752259	      0.00000000	    -54.60810035	      7.40535233	     -8.99922224
     14.85000000	     -3.43190041	    -51.39298131	    -86.32023216	      0.22947252	      1.02910232	      0.36356826	     19.75977078	     -6.22246695	    -16.11522665	    -80.57393481	      0.88056665	     -1.70931298	      0.00000000	     37.40775947	     -2.37973283	     -8.52305950	    -20.98928883	    -17.97896902	     18.12758142	      0.00000000	    -54.60794200	      7.40459389	     -8.99899498
     14.85833333	     -3.43230618	    -51.39363955	    -86.32121075	      0.22945915	      1.02910331	      0.36356808	     19.75957870	     -6.22244447	    -16.11535253	    -80.57433894	      0.88078212	     -1.70939219	      0.00000000	     37.40721939	     -2.37751022	     -8.52344149	    -20.98997110	    -17.97874305	     18.12752796	      0.00000000	    -54.60734933	      7.40468319	     -8.99905882
     14.86666667	     -3.43424878	    -51.39385398	    -86.32132902	      0.22946216	      1.02909586	      0.36357131	     19.76011965	     -6.22275603	    -16.11503202	    -80.57416992	      0.88095402	     -1.70957050	      0.00000000	     37.40644661	     -2.37519246	     -8.52403841	    -20.99022158	    -17.97845334	     18.12746009	      0.00000000	    -54.60746702	      7.40436413	     -8.99920444
     14.87500000	     -3.43443750	    -51.39340002	    -86.32070678	      0.22946712	      1.02909951	      0.36357138	     19.76091339	     -6.22249866	    -16.11540173	    -80.57421555	      0.88101723	     -1.70960317	      0.00000000	     37.40558258	     -2.37532246	     -8.52423607	    -20.99018267	    -17.97824159	     18.12733041	      0.00000000	    -54.60804313	      7.40455898	     -8.99908506
     14.88333333	     -3.43445555	    -51.39417487	    -86.32056452	      0.22946432	      1.02909530	      0.36356369	     19.76147360	     -6.22197438	    -16.11652718	    -80.57418205	      0.88097959	     -1.70956461	      0.00000000	     37.40471074	     -2.37462956	     -8.52490802	    -20.98997602	    -17.97784488	     18.12691532	      0.00000000	    -54.60744537	      7.40460481	     -8.99863075
